# xmcd
#
# Track frame offsets:
#	150
#	15697
#	28300
#	41265
#	56895
#	67917
#	81435
#	94175
#	109087
#	123350
#	137282
#	147890
#	160767
#	171782
#
# Disc length: 2454 seconds
#
# Revision: 0
# Processed by: cddbd v1.4PL0 Copyright (c) Steve Scherf et al.
# Submitted via: dBpowerAMP V4.0
#
DISCID=b709940e
DTITLE=Teodoro e Sampaio - Cheirinho de Mulher
DYEAR=1900
DGENRE=Sertanejo
TTITLE0=Cheirinho de Mulher
TTITLE1=Coracao Vira-lata
TTITLE2=Casa Assombrada
TTITLE3=Adeus Paixao
TTITLE4=O Chorao
TTITLE5=Oi Paixao
TTITLE6=Ex-mulher
TTITLE7=Quem e que tem Paixao
TTITLE8=Morro de Amor
TTITLE9=No Meio da Chuva
TTITLE10=Conta pra Ela
TTITLE11=Fingindo Dormir
TTITLE12=Agarradinho
TTITLE13=Seu Nome
EXTD=
EXTT0=
EXTT1=
EXTT2=
EXTT3=
EXTT4=
EXTT5=
EXTT6=
EXTT7=
EXTT8=
EXTT9=
EXTT10=
EXTT11=
EXTT12=
EXTT13=
PLAYORDER=
